<svg xmlns="http://www.w3.org/2000/svg" viewBox="0 0 24 24" fill="currentColor"><defs><mask id="tier-diamond-m0" maskUnits="userSpaceOnUse" x="0" y="0" width="24" height="24"><rect width="24" height="24" fill="#fff"/><g fill="#000"><path d="M10.6 20v-2.6a1.4 1.4 0 0 1 2.8 0V20z"/><rect x="6.4" y="12.4" width="11.2" height="1.3"/></g></mask></defs><g mask="url(#tier-diamond-m0)"><rect x="1.5" y="20" width="21" height="2" rx=".6"/><path d="M2.4 20L2.4 10.4L2 10.4L4.4 5L6.8 10.4L6.4 10.4L6.4 20z"/><path d="M17.6 20L17.6 10.4L17.2 10.4L19.6 5L22 10.4L21.6 10.4L21.6 20z"/><rect x="6.4" y="13.6" width="11.2" height="6.4"/><rect x="9.8" y="8.4" width="4.4" height="5.6"/><path d="M12 2.4C12.68 4.08 15.91 4.68 15.4 7.08Q15.06 8.4 12 8.4Q8.94 8.4 8.6 7.08C8.09 4.68 11.32 4.08 12 2.4z"/><rect x="11.3" y="1.4" width="1.4" height="2"/></g></svg>
